<svg width="16" height="16" viewBox="0 0 16 16" fill="none" xmlns="http://www.w3.org/2000/svg">
<g id="4375133_logo_youtube_icon 1">
<g id="_x33_95-youtube">
<g id="Group">
<path id="Vector" d="M14.8871 4.52753C14.7217 3.90506 14.2346 3.41478 13.6161 3.24837C12.4951 2.94609 7.99996 2.94609 7.99996 2.94609C7.99996 2.94609 3.50481 2.94609 2.38375 3.2484C1.76528 3.41481 1.27819 3.90506 1.11287 4.52756C0.8125 5.65584 0.8125 8.01 0.8125 8.01C0.8125 8.01 0.8125 10.3642 1.11287 11.4924C1.27819 12.1149 1.76528 12.5848 2.38375 12.7512C3.50481 13.0535 7.99996 13.0535 7.99996 13.0535C7.99996 13.0535 12.4951 13.0535 13.6161 12.7512C14.2346 12.5847 14.7217 12.1149 14.8871 11.4924C15.1874 10.3642 15.1874 8.00997 15.1874 8.00997C15.1874 8.00997 15.1874 5.65584 14.8871 4.52753Z" fill="#6D747A"/>
<path id="Vector_2" d="M6.52979 10.1469V5.87216L10.2869 8.0096L6.52979 10.1469Z" fill="#EBEDF0"/>
</g>
</g>
</g>
</svg>
