<svg width="16" height="16" viewBox="0 0 16 16" fill="none" xmlns="http://www.w3.org/2000/svg">
<g id="5279116_pin_pinterest_inspiration_pinterest logo_icon 1" clip-path="url(#clip0_1303_68897)">
<path id="Vector" d="M7.99994 0.0156555C3.58169 0.0156555 0 3.59744 0 8.01559C0 11.4048 2.10859 14.3022 5.08459 15.4678C5.01459 14.8348 4.95144 13.8614 5.11237 13.1704C5.25769 12.5461 6.05044 9.19387 6.05044 9.19387C6.05044 9.19387 5.81109 8.71469 5.81109 8.00612C5.81109 6.89375 6.45584 6.06328 7.25869 6.06328C7.94116 6.06328 8.27091 6.57575 8.27091 7.19019C8.27091 7.87662 7.83391 8.90278 7.60831 9.85378C7.41988 10.6501 8.00766 11.2994 8.79297 11.2994C10.2149 11.2994 11.3079 9.80019 11.3079 7.63603C11.3079 5.72062 9.93147 4.38137 7.96625 4.38137C5.68997 4.38137 4.35384 6.08869 4.35384 7.85309C4.35384 8.54072 4.61869 9.27797 4.94922 9.67875C5.01453 9.75797 5.02416 9.82744 5.00472 9.90822C4.94394 10.1609 4.80903 10.7043 4.7825 10.8155C4.74759 10.9619 4.66653 10.993 4.51497 10.9225C3.51578 10.4573 2.89112 8.99662 2.89112 7.82328C2.89112 5.29969 4.72463 2.98219 8.177 2.98219C10.9522 2.98219 13.1089 4.95966 13.1089 7.6025C13.1089 10.3597 11.3705 12.5785 8.95759 12.5785C8.14697 12.5785 7.38484 12.1574 7.12403 11.6599C7.12403 11.6599 6.72284 13.1874 6.62559 13.5617C6.44491 14.2566 5.95741 15.1276 5.63128 15.6589C6.37988 15.8907 7.17531 16.0156 7.99994 16.0156C12.4183 16.0156 16 12.434 16 8.01559C16 3.59744 12.4183 0.0156555 7.99994 0.0156555Z" fill="#6D747A"/>
</g>
<defs>
<clipPath id="clip0_1303_68897">
<rect width="16" height="16" fill="white"/>
</clipPath>
</defs>
</svg>
