<svg width="16" height="16" viewBox="0 0 16 16" fill="none" xmlns="http://www.w3.org/2000/svg">
<g id="5296514_bird_tweet_twitter_twitter logo_icon 3">
<path id="Vector" d="M5.03169 14.5008C11.0694 14.5008 14.3718 9.49856 14.3718 5.16063C14.3718 5.01856 14.3718 4.87713 14.3623 4.73631C15.0047 4.27159 15.5593 3.69625 16 3.03713C15.4009 3.30259 14.7653 3.47666 14.1146 3.55359C14.7997 3.14347 15.3128 2.49791 15.5577 1.73791C14.9134 2.12025 14.2084 2.38975 13.4733 2.53472C12.8526 1.87469 11.9857 1.49997 11.0798 1.49997C9.27719 1.49997 7.79397 2.98322 7.79397 4.78572C7.79397 5.03578 7.82253 5.28506 7.87903 5.52863C5.24097 5.39641 2.77966 4.14859 1.11359 2.09888C0.247219 3.59031 0.6955 5.52313 2.12991 6.48094C1.60756 6.46547 1.09644 6.32453 0.64 6.07006V6.11166C0.640437 7.66834 1.74772 9.02138 3.27359 9.32959C2.79034 9.46138 2.28319 9.48063 1.79138 9.38591C2.22034 10.7198 3.45734 11.6393 4.85825 11.6656C3.69606 12.5789 2.25959 13.0751 0.781438 13.0736C0.52025 13.0731 0.259313 13.0573 0 13.0262C1.50106 13.9895 3.24813 14.5006 5.03169 14.4982" fill="#6D747A"/>
</g>
</svg>
