<svg width="16" height="16" viewBox="0 0 16 16" fill="none" xmlns="http://www.w3.org/2000/svg">
<g id="5335781_camera_instagram_social media_instagram logo_icon 1">
<g id="Group">
<path id="Vector" d="M8 1.17197C6.14598 1.17197 5.9135 1.17983 5.18537 1.21305C4.45875 1.24622 3.9625 1.3616 3.52825 1.53037C3.07933 1.70483 2.69863 1.93826 2.31911 2.31777C1.9396 2.69728 1.70618 3.07799 1.53172 3.5269C1.36295 3.96112 1.24756 4.45738 1.21439 5.18399C1.18117 5.91213 1.17334 6.1446 1.17334 7.99862C1.17334 9.85261 1.18117 10.0851 1.21439 10.8132C1.24756 11.5398 1.36295 12.0361 1.53172 12.4703C1.70618 12.9192 1.9396 13.2999 2.31911 13.6795C2.69863 14.059 3.07933 14.2924 3.52825 14.4669C3.9625 14.6356 4.45875 14.751 5.18537 14.7842C5.9135 14.8174 6.14598 14.8253 8 14.8253C9.85399 14.8253 10.0865 14.8174 10.8146 14.7842C11.5412 14.751 12.0375 14.6356 12.4717 14.4669C12.9206 14.2924 13.3013 14.059 13.6809 13.6795C14.0604 13.2999 14.2938 12.9192 14.4682 12.4703C14.637 12.0361 14.7524 11.5398 14.7855 10.8132C14.8188 10.0851 14.8266 9.85261 14.8266 7.99862C14.8266 6.1446 14.8188 5.91213 14.7855 5.18399C14.7524 4.45738 14.637 3.96112 14.4682 3.5269C14.2938 3.07799 14.0604 2.69728 13.6809 2.31777C13.3013 1.93826 12.9206 1.70483 12.4717 1.53037C12.0375 1.3616 11.5412 1.24622 10.8146 1.21305C10.0865 1.17983 9.85399 1.17197 8 1.17197ZM8 2.40202C9.82277 2.40202 10.0387 2.40895 10.7585 2.4418C11.4241 2.47218 11.7856 2.58339 12.0261 2.67685C12.3448 2.80069 12.5722 2.94865 12.8111 3.18752C13.05 3.42639 13.1979 3.65383 13.3217 3.97245C13.4152 4.213 13.5264 4.57447 13.5568 5.24006C13.5896 5.9599 13.5966 6.17582 13.5966 7.99862C13.5966 9.8214 13.5896 10.0373 13.5568 10.7572C13.5264 11.4228 13.4152 11.7842 13.3217 12.0248C13.1979 12.3434 13.05 12.5708 12.8111 12.8097C12.5722 13.0486 12.3448 13.1965 12.0261 13.3204C11.7856 13.4139 11.4241 13.5251 10.7585 13.5554C10.0388 13.5883 9.82291 13.5952 8 13.5952C6.17706 13.5952 5.96119 13.5883 5.24143 13.5554C4.57584 13.5251 4.21438 13.4139 3.97382 13.3204C3.65517 13.1965 3.42776 13.0486 3.18886 12.8097C2.94999 12.5708 2.80204 12.3434 2.67822 12.0248C2.58473 11.7842 2.47352 11.4228 2.44314 10.7572C2.4103 10.0373 2.40336 9.8214 2.40336 7.99862C2.40336 6.17582 2.4103 5.9599 2.44314 5.24006C2.47352 4.57447 2.58473 4.213 2.67822 3.97245C2.80204 3.65383 2.94999 3.42639 3.18886 3.18752C3.42776 2.94865 3.65517 2.80069 3.97382 2.67685C4.21438 2.58339 4.57584 2.47218 5.24143 2.4418C5.96128 2.40895 6.1772 2.40202 8 2.40202Z" fill="#6D747A"/>
<path id="Vector_2" d="M8.00021 10.2808C6.74344 10.2808 5.72465 9.26198 5.72465 8.00523C5.72465 6.74846 6.74344 5.72967 8.00021 5.72967C9.25696 5.72967 10.2757 6.74846 10.2757 8.00523C10.2757 9.26198 9.25696 10.2808 8.00021 10.2808ZM8.00021 4.49965C6.06411 4.49965 4.49463 6.06913 4.49463 8.00523C4.49463 9.94131 6.06411 11.5108 8.00021 11.5108C9.93629 11.5108 11.5058 9.94131 11.5058 8.00523C11.5058 6.06913 9.93629 4.49965 8.00021 4.49965Z" fill="#6D747A"/>
<path id="Vector_3" d="M12.4631 4.35078C12.4631 4.80321 12.0963 5.16996 11.6439 5.16996C11.1915 5.16996 10.8247 4.80321 10.8247 4.35078C10.8247 3.89834 11.1915 3.53159 11.6439 3.53159C12.0963 3.53159 12.4631 3.89834 12.4631 4.35078Z" fill="#6D747A"/>
</g>
</g>
</svg>
