<svg width="16" height="16" viewBox="0 0 16 16" fill="none" xmlns="http://www.w3.org/2000/svg">
<g id="843777_google_google+_plus_icon 1">
<g id="Group">
<path id="Vector" d="M5.55035 7.27736C5.54823 7.78353 5.55035 8.28966 5.55249 8.79579C6.40104 8.82345 7.25168 8.81066 8.10023 8.82345C7.72595 10.7055 5.16546 11.3159 3.81077 10.0867C2.41779 9.00847 2.48372 6.64364 3.93199 5.64199C4.94428 4.83385 6.38402 5.03375 7.39629 5.73343C7.79399 5.36552 8.16613 4.97208 8.52554 4.56377C7.68339 3.89174 6.64985 3.41324 5.55035 3.46429C3.2557 3.38773 1.14605 5.39741 1.10778 7.69209C0.96103 9.56778 2.1945 11.4073 3.93625 12.0709C5.67159 12.7386 7.89607 12.2835 9.00407 10.7247C9.73564 9.74004 9.89301 8.47257 9.80794 7.28163C8.38731 7.27099 6.96884 7.2731 5.55035 7.27736Z" fill="#6D747A"/>
<path id="Vector_2" d="M13.8485 7.2712C13.8442 6.84799 13.8421 6.42265 13.84 5.99947C13.4168 5.99947 12.9957 5.99947 12.5746 5.99947C12.5704 6.42268 12.5661 6.84587 12.564 7.2712C12.1386 7.27332 11.7154 7.27547 11.2922 7.27973C11.2922 7.70292 11.2922 8.12399 11.2922 8.54509C11.7154 8.54935 12.1408 8.55361 12.564 8.55784C12.5682 8.98106 12.5682 9.40425 12.5725 9.82747C12.9957 9.82747 13.4168 9.82747 13.84 9.82747C13.8421 9.40425 13.8442 8.98106 13.8485 8.55573C14.2738 8.55147 14.697 8.54935 15.1202 8.54509C15.1202 8.12399 15.1202 7.7008 15.1202 7.27973C14.697 7.27547 14.2717 7.27547 13.8485 7.2712Z" fill="#6D747A"/>
</g>
</g>
</svg>
