<svg width="40" height="40" viewBox="0 0 40 40" fill="none" xmlns="http://www.w3.org/2000/svg">
<g id="Product 2">
<path id="Vector" d="M36.5333 12.0832V12.2999L34.0999 21.2999C33.8124 22.3681 33.1786 23.3108 32.298 23.9803C31.4173 24.6499 30.3395 25.0084 29.2333 24.9999H16.4833C15.2316 25.005 14.0235 24.5404 13.0978 23.698C12.172 22.8555 11.5959 21.6965 11.4833 20.4499L10.4 8.18322C10.3624 7.76769 10.1704 7.38135 9.86178 7.10053C9.5532 6.81972 9.15051 6.66486 8.73328 6.66656H5.11662C4.67459 6.66656 4.25067 6.49096 3.93811 6.1784C3.62555 5.86584 3.44995 5.44192 3.44995 4.99989C3.44995 4.55786 3.62555 4.13394 3.93811 3.82138C4.25067 3.50882 4.67459 3.33322 5.11662 3.33322H8.73328C9.98496 3.32815 11.193 3.79272 12.1188 4.63516C13.0445 5.47759 13.6206 6.63662 13.7333 7.88322V8.33322H33.2166C33.6917 8.3295 34.1622 8.42738 34.5964 8.62032C35.0305 8.81326 35.4185 9.09679 35.7341 9.45191C36.0498 9.80703 36.2859 10.2255 36.4266 10.6793C36.5673 11.1332 36.6094 11.6118 36.5499 12.0832H36.5333Z" fill="#C0504D"/>
<path id="Vector_2" d="M15.1166 36.6667C17.4178 36.6667 19.2833 34.8012 19.2833 32.5001C19.2833 30.1989 17.4178 28.3334 15.1166 28.3334C12.8154 28.3334 10.95 30.1989 10.95 32.5001C10.95 34.8012 12.8154 36.6667 15.1166 36.6667Z" fill="#C0504D"/>
<path id="Vector_3" d="M28.4501 36.6667C30.7513 36.6667 32.6168 34.8012 32.6168 32.5001C32.6168 30.1989 30.7513 28.3334 28.4501 28.3334C26.1489 28.3334 24.2834 30.1989 24.2834 32.5001C24.2834 34.8012 26.1489 36.6667 28.4501 36.6667Z" fill="#C0504D"/>
</g>
</svg>
